<svg xmlns="http://www.w3.org/2000/svg" width="340" height="200" viewBox="0 0 340 200" role="img" aria-labelledby="title description">
  <title id="title">Top Languages by Repository</title>
  <desc id="description">Pie chart showing Python, C sharp, TypeScript, JavaScript, and Jupyter Notebook repositories.</desc>
  <style>
    text { font-family: "Segoe UI", Ubuntu, "Helvetica Neue", sans-serif; }
  </style>
  <rect x="1" y="1" rx="5" ry="5" height="198" width="338" stroke="#2e343b" fill="#0d1117"/>
  <text x="30" y="40" font-size="22" fill="#58a6ff">Top Languages by Repo</text>
  <g transform="translate(40 40)" font-size="14" fill="#8b949e">
    <rect y="18" width="14" height="14" fill="#1E3A8A" stroke="#0d1117"/>
    <rect y="43.2" width="14" height="14" fill="#7355DD" stroke="#0d1117"/>
    <rect y="68.4" width="14" height="14" fill="#22D3EE" stroke="#0d1117"/>
    <rect y="93.6" width="14" height="14" fill="#F1E05A" stroke="#0d1117"/>
    <rect y="118.8" width="14" height="14" fill="#DA5B0B" stroke="#0d1117"/>
    <text x="16.8" y="30">Python</text>
    <text x="16.8" y="55.2">C#</text>
    <text x="16.8" y="80.4">TypeScript</text>
    <text x="16.8" y="105.6">JavaScript</text>
    <text x="16.8" y="130.8">Jupyter Notebook</text>
  </g>
  <g transform="translate(230 120)" stroke="#0d1117" stroke-width="2">
    <path d="M0,-60 A60,60 0 0 1 59.795,4.955 L34.880,2.890 A35,35 0 0 0 0,-35 Z" fill="#1E3A8A"/>
    <path d="M59.795,4.955 A60,60 0 0 1 -9.876,59.182 L-5.761,34.523 A35,35 0 0 0 34.880,2.890 Z" fill="#7355DD"/>
    <path d="M-9.876,59.182 A60,60 0 0 1 -58.164,-14.729 L-33.929,-8.592 A35,35 0 0 0 -5.761,34.523 Z" fill="#22D3EE"/>
    <path d="M-58.164,-14.729 A60,60 0 0 1 -19.482,-56.749 L-11.364,-33.104 A35,35 0 0 0 -33.929,-8.592 Z" fill="#F1E05A"/>
    <path d="M-19.482,-56.749 A60,60 0 0 1 0,-60 L0,-35 A35,35 0 0 0 -11.364,-33.104 Z" fill="#DA5B0B"/>
  </g>
</svg>
